<?xml version="1.0" encoding="utf-8"?>
<!-- Generator: Adobe Illustrator 19.1.1, SVG Export Plug-In . SVG Version: 6.00 Build 0)  -->
<svg version="1.1" id="Слой_1" xmlns="http://www.w3.org/2000/svg" xmlns:xlink="http://www.w3.org/1999/xlink" x="0px" y="0px"
	 viewBox="0 0 32 32" style="enable-background:new 0 0 32 32;" xml:space="preserve">
<style type="text/css">
	.st0{fill:#E52420;}
</style>
<g>
	<path class="st0" d="M16.1,17.2h-2.2v2.9h2.2c0.7,0,1.3-0.1,1.6-0.4c0.3-0.3,0.5-0.6,0.5-1.1c0-0.4-0.2-0.8-0.4-1
		C17.4,17.3,16.8,17.2,16.1,17.2z"/>
	<path class="st0" d="M17.2,14.1c0.3-0.2,0.4-0.6,0.4-1c0-0.4-0.1-0.8-0.4-1c-0.3-0.2-0.7-0.4-1.4-0.4h-1.9v2.8h1.9
		C16.4,14.4,16.9,14.3,17.2,14.1z"/>
	<path class="st0" d="M0,0v32h32V0H0z M21.9,21.2c-0.3,0.6-0.8,1.1-1.4,1.4c-0.4,0.2-0.9,0.4-1.6,0.5c-1,0.1-1.6,0.2-1.9,0.2H9.6
		V8.7h8c1.3,0,2.4,0.3,3.1,1c0.7,0.7,1.1,1.6,1.1,2.6c0,0.9-0.3,1.6-0.8,2.2c-0.3,0.4-0.8,0.7-1.5,1c1,0.3,1.7,0.7,2.2,1.3
		c0.5,0.6,0.7,1.4,0.7,2.3C22.4,19.9,22.2,20.6,21.9,21.2z"/>
</g>
</svg>
