<?xml version="1.0" encoding="utf-8"?>
<svg version="1.1" id="Layer_1" xmlns="http://www.w3.org/2000/svg" xmlns:xlink="http://www.w3.org/1999/xlink" x="0px" y="0px"
	 viewBox="0 0 30 31" style="enable-background:new 0 0 30 31;" xml:space="preserve">
<path d="M7.1,5.8c0.1-0.2,0-0.2-0.2-0.3c-0.2-0.1-0.4,0-0.6,0.1C3,8.1,1,11.9,0.8,16.1c-0.3,5.5,2.7,10.7,7.6,13.3
	c0.1,0,0.2,0.1,0.2,0.1c0.1,0,0.2,0,0.3,0c0.2-0.1,0.5-0.3,0.4-0.4C4.3,26.7-1.6,15.4,7.1,5.8z"/>
<path d="M19.6,29.4C14.5,16.9,23.1,4.2,23.2,4c0.1-0.2,0.1-0.4,0.1-0.5c0-0.2-0.2-0.3-0.4-0.4l-6.3-2.9c0,0-0.1,0-0.1,0
	c0,0-0.1,0-0.1,0c-0.1,0-0.1,0-0.2,0c0,0,0,0-0.1,0L8.4,2.3C8.1,2.4,7.9,2.7,7.9,3.1c0,0,0.1,0.7,0.4,1.7c0.6,2.5,1.7,6.7,3.1,11
	c0.8,3.4,0.2,10.5-0.9,13.7c-0.1,0.2,0,0.3,0,0.5c0.1,0.1,0.2,0.3,0.4,0.3c1.1,0.3,2.2,0.5,3.2,0.6c0.2,0,0.3,0,0.5,0l0.2,0
	c0,0,0,0,0,0c1.9,0.1,3.4-0.3,4-0.6c0,0,0.1,0,0.1,0c0.1,0,0.1,0,0.2-0.1c0,0,0,0,0,0c0,0,0,0,0,0c0,0,0,0,0,0c0,0,0.1-0.1,0.1-0.1
	c0,0,0.1,0,0.1-0.1c0,0,0-0.1,0.1-0.1c0,0,0.1-0.1,0.1-0.1c0,0,0,0,0,0c0,0,0-0.1,0-0.1c0,0,0-0.1,0-0.1
	C19.6,29.6,19.6,29.6,19.6,29.4C19.6,29.5,19.6,29.4,19.6,29.4z M16.7,3.4c0.1-0.7,0.1-1.3,0.2-1.7l4.8,2.2
	c-1.1,1.9-4.3,7.6-4.9,14.6C16.1,12.4,16.4,6.4,16.7,3.4z M15.5,29.7c0-0.8,0.2-7.6-0.1-9.8c0.8,1.6,2,8.1,2.9,9.4
	C17.7,29.4,16.3,29.7,15.5,29.7z"/>
<path d="M24.3,6.2C24.1,6.1,24,6,23.8,6.1c-0.2,0-0.3,0.1-0.4,0.3c5.2,4.3,5.6,17.6-2.6,22.5c0.1,0.2,0.2,0.3,0.4,0.3
	c0.1,0,0.1,0,0.2,0c0.1,0,0.2,0,0.3-0.1c4.4-2.4,7.1-6.7,7.4-11.7C29.3,13.2,27.5,9.1,24.3,6.2z"/>
</svg>
